<svg height="64" viewBox="0 0 0 64" fill="none" xmlns="http://www.w3.org/2000/svg">
<path d="M-0.707107 64.7071C-0.316583 65.0976 0.316582 65.0976 0.707107 64.7071L7.07107 58.3431C7.46159 57.9526 7.46159 57.3195 7.07107 56.9289C6.68054 56.5384 6.04738 56.5384 5.65685 56.9289L6.18171e-08 62.5858L-5.65685 56.9289C-6.04738 56.5384 -6.68054 56.5384 -7.07107 56.9289C-7.46159 57.3195 -7.46159 57.9526 -7.07107 58.3431L-0.707107 64.7071ZM2.79753e-06 0L-0.999997 -4.37114e-08L-1 64L0 64L1 64L1 4.37114e-08L2.79753e-06 0Z" fill="black"/>
</svg>
