<svg height="42" viewBox="0 0 0 42" fill="none" xmlns="http://www.w3.org/2000/svg">
<path d="M0.707107 -0.707108C0.316582 -1.09763 -0.316583 -1.09763 -0.707107 -0.707108L-7.07107 5.65685C-7.46159 6.04738 -7.46159 6.68054 -7.07107 7.07107C-6.68054 7.46159 -6.04738 7.46159 -5.65685 7.07107L6.18174e-08 1.41422L5.65685 7.07107C6.04738 7.46159 6.68054 7.46159 7.07107 7.07107C7.46159 6.68054 7.46159 6.04738 7.07107 5.65685L0.707107 -0.707108ZM1.83588e-06 42L1 42L1 -4.37114e-08L0 0L-1 4.37114e-08L-0.999998 42L1.83588e-06 42Z" fill="black"/>
</svg>
