<svg width="38" height="62" viewBox="0 0 38 62" fill="none" xmlns="http://www.w3.org/2000/svg">
<g opacity="0.74" clip-path="url(#clip0_336_63)">
<path d="M18.9247 54.1935L19.4481 52.2384C20.7533 41.5266 19.2543 30.3019 19.965 19.6606C20.0231 18.776 20.1071 17.0452 20.8372 16.6157C21.3089 16.34 24.4361 15.1092 24.701 15.3721C24.3327 24.9492 25.1985 34.8982 24.714 44.4369C24.5137 48.3665 23.8805 51.9884 22.459 55.4884C22.0261 56.5654 19.9391 61.495 18.7955 61.495L16.1077 56.6103C14.0853 53.591 13.5813 48.9049 13.4004 45.219C12.9158 35.411 13.8269 25.3146 13.5167 15.6541C13.5038 15.3336 13.549 15.3208 13.8075 15.1221C14.7831 15.9811 17.8651 16.167 18.1365 17.5965C18.466 29.7891 17.3805 42.0971 18.9312 54.2L18.9247 54.1935Z" fill="white"/>
<path d="M37.7785 11.7633C38.3406 12.7185 35.0261 15.2634 34.2636 15.3724C33.1265 15.5263 32.3705 14.0262 31.1235 13.8211C30.0122 13.6352 26.2582 13.6608 25.0888 13.8019C23.4282 14.0006 19.8294 16.1353 19.054 16.1353C17.8393 16.1353 14.7896 14.0006 13.0128 13.8083C11.8304 13.6801 7.76634 13.616 6.71317 13.8083C5.73753 13.9942 5.03326 15.5519 3.83148 15.3788C3.4115 15.3147 0 12.7185 0 12.3723C0 11.7313 3.3792 9.60304 4.09639 9.10303C5.58892 9.58381 5.93136 10.789 7.74696 10.9556C14.9899 11.6223 23.2603 10.4236 30.6131 10.9492C32.4157 10.9685 33.0425 8.51327 34.7741 9.41073C34.9938 9.52611 37.6816 11.6031 37.7785 11.7698V11.7633Z" fill="white"/>
<path d="M22.3685 6.2181C22.8725 6.37836 23.3118 6.154 23.7577 5.96168C26.3357 4.85909 28.8362 2.58981 31.5305 1.55773C31.8148 1.89748 27.5762 8.23738 27.1627 9.13484C21.7547 7.67968 16.1206 7.89763 10.7061 9.13484L6.57739 1.82056C7.23643 1.28849 13.6912 6.26938 14.8542 6.23092C15.1643 6.22451 15.8363 5.7886 16.043 5.53219C16.5211 4.91679 18.6856 0 19.0539 0L22.3685 6.2181Z" fill="white"/>
<path d="M33.1006 35.6931L33.0812 31.9366C32.5256 27.9686 26.3552 27.1416 25.625 25.5262C25.3278 24.866 25.2761 21.8082 26.0127 21.4748C26.4908 21.2569 30.8715 23.8595 31.5112 24.3788C35.0261 27.2378 34.5867 31.8789 33.1071 35.6867L33.1006 35.6931Z" fill="white"/>
<path d="M12.3538 31.7827V35.6931C8.91642 35.2379 5.44676 35.8726 2.11279 36.7316C5.13663 34.7059 8.61274 31.9045 12.3538 31.7827Z" fill="white"/>
<path d="M12.3538 26.834V29.9623C9.19431 30.0264 6.02833 29.8597 2.90112 29.4366L12.3538 26.834Z" fill="white"/>
<path d="M12.3537 21.3657V24.7504C11.7981 25.2953 4.83938 22.5452 4.21265 21.3657C6.97157 21.6734 9.65296 22.3593 12.3537 21.3657Z" fill="white"/>
<path d="M12.3538 37.52L12.3215 40.6098C10.1893 41.2444 8.2639 42.3021 6.84244 44.033C6.27386 42.4175 11.4363 36.584 12.3538 37.52Z" fill="white"/>
</g>
<defs>
<clipPath id="clip0_336_63">
<rect width="37.8431" height="61.4951" fill="white"/>
</clipPath>
</defs>
</svg>
