<svg width="90" height="37" viewBox="0 0 90 37" fill="none" xmlns="http://www.w3.org/2000/svg">
<g opacity="0.74" clip-path="url(#clip0_342_871)">
<path d="M37.4892 22.3173H32.7426C32.6842 22.5946 32.8385 22.666 32.9928 22.8341C33.9063 23.8256 35.2452 24.7835 36.2254 25.7288C36.4047 25.901 37.5142 26.9177 37.3224 27.0984L31.8541 26.8841L29.0137 24.5398V26.9303H24.9427V7.62958L25.7895 7.46153L23.4161 6.26416H34.5194C35.5163 7.18424 36.8135 7.88166 37.4809 9.08743C37.5267 12.2762 37.435 15.465 37.4809 18.6538C37.4976 19.8428 37.8104 21.0401 37.4892 22.3173ZM33.4183 10.3646C33.1638 10.4318 32.7384 10.0243 32.655 10.0243H29.2639L29.0095 10.2806V18.5614H33.4183V10.3646Z" fill="black"/>
<path d="M84.284 10.3646V6.26416H87.9295L88.184 6.52044V25.733L87.3372 25.901L89.8774 26.7581C89.7523 27.2328 89.5521 26.9261 89.452 26.9261H84.2799V15.9103L79.7001 11.7258V26.9261H75.6291V7.62958L76.4759 7.46153L74.2736 6.26416H79.6125C81.3268 7.38171 82.4238 9.52857 84.2757 10.3646H84.284Z" fill="black"/>
<path d="M73.26 10.8772H69.1891C69.139 10.8772 68.9054 10.0243 68.5968 10.0243H64.9513V22.9181L65.2057 23.1744H69.1891V14.8054H73.26V26.9304H69.1891V25.2246L67.8919 26.9051L63.6833 26.9304L60.8804 24.46V6.26416H70.4612C70.9367 7.00359 72.8763 8.35221 73.1724 8.99921C73.406 9.51176 73.1933 10.31 73.26 10.873V10.8772Z" fill="black"/>
<path d="M52.409 6.26416V10.0201H44.1879C44.0419 9.99491 43.7625 10.184 43.7625 10.2764V14.5449L44.0169 14.8012H50.3735V18.5572H44.0169L43.7625 18.8134V23.1702H52.1546L52.409 23.4265V26.9261H39.6915L39.8625 6.26416H52.409Z" fill="black"/>
<path d="M11.0407 32.3919L11.3577 31.0895C12.1002 26.3546 10.9573 20.6787 11.5329 16.0698C11.5746 15.7421 11.8582 15.906 11.9 15.5825C12.0877 14.0784 11.6205 11.8727 11.8916 10.4527C12.0084 9.82671 14.2858 8.84781 14.4318 8.99906C14.1857 14.9271 14.7613 21.124 14.4401 27.0226C14.2608 30.3038 13.4558 34.2699 11.1283 36.6604C9.0428 34.3161 8.35875 31.0853 7.9917 28.0393V8.99906C8.12517 8.86041 10.6945 9.88973 10.5235 10.6334C10.7112 17.8848 10.1064 25.1951 11.0449 32.3961L11.0407 32.3919Z" fill="black"/>
<path d="M58.8491 6.26416V25.733L57.8314 25.901L60.3715 26.7581C60.4508 27.4177 60.0963 26.9261 59.9461 26.9261H54.774V7.80184L55.7917 7.46153L53.2516 6.26416H58.8449H58.8491Z" fill="black"/>
<path d="M57.8314 30.5142H24.9427V27.9556H56.7302L57.8314 30.5142Z" fill="black"/>
<path d="M22.3484 6.82716C22.4444 6.94059 22.4986 7.05403 22.4986 7.20107C22.4986 7.67582 20.1503 9.2219 19.7374 9.04124C19.412 8.9026 19.191 8.48247 18.9032 8.33122C18.3651 8.04973 15.4162 8.04553 14.6821 8.13376C13.6602 8.2598 11.9292 9.50338 11.1242 9.48658C10.3192 9.46977 8.85514 8.264 7.7373 8.13796C7.01571 8.05394 4.67576 8.02453 4.01674 8.14636C3.41611 8.2556 2.84885 9.16728 2.33998 9.12527L3.17316e-05 7.37753C-0.0208234 6.76414 2.08555 5.23066 2.4818 5.24327L4.1669 6.27258C8.59653 5.89867 13.7478 6.73893 18.0898 6.27258C19.0241 6.17175 19.1868 5.64239 19.9417 5.23486C20.0877 5.23486 22.2275 6.67591 22.3526 6.82716H22.3484Z" fill="black"/>
<path d="M11.6122 0.739548C12.3713 1.69744 12.8134 2.66794 13.4975 3.70146L18.4985 0.802568C18.6779 1.00003 16.3755 4.96185 15.8791 5.36518C12.609 4.31906 9.37649 4.80641 6.06469 5.24754L3.92078 1.05465C4.01671 0.819373 4.23778 1.03364 4.37542 1.10926C5.85614 1.89491 7.26595 2.89481 8.75083 3.67205L11.0366 0.0295288C11.291 -0.151127 11.4662 0.563094 11.608 0.739548H11.6122Z" fill="black"/>
<path d="M19.5163 21.2924C19.2118 21.3302 19.3495 20.9101 19.3703 20.7168C19.5538 18.7506 19.4954 18.028 17.8145 16.7802C16.1336 15.5324 14.4276 16.0366 14.9448 13.1839C15.0908 12.3772 16.5173 13.1797 17.0429 13.4612C18.7572 14.377 20.1962 16.0786 20.2003 18.1372C20.2003 19.1875 19.5789 20.2547 19.5205 21.2966L19.5163 21.2924Z" fill="black"/>
<path d="M7.30766 18.7334V21.2962C5.1846 20.8635 3.14497 21.6533 1.03442 21.7247C3.19085 20.8677 4.96354 19.0947 7.30766 18.7376V18.7334Z" fill="black"/>
<path d="M75.9754 29.321C75.3664 29.2496 75.1412 30.2579 74.7908 30.4302C73.3977 31.1192 73.9566 28.9513 73.6021 28.1237H74.6198L74.7074 29.4891C75.2746 29.4807 75.5332 28.0606 76.3174 28.2917L76.5718 29.4891C77.1057 28.9471 77.6313 27.4725 78.5197 28.2077L76.551 30.4932L76.063 30.3462L75.9837 29.3168L75.9754 29.321Z" fill="#E30613"/>
<path d="M7.30767 12.5828V14.8011C7.00319 15.1036 3.04905 13.3895 2.56104 12.8349C4.15854 12.8181 5.74771 13.1416 7.30767 12.5786V12.5828Z" fill="black"/>
<path d="M7.30771 15.8306L7.31188 17.8766L1.71436 17.5363L4.25869 16.9397L7.30771 15.8306Z" fill="black"/>
<path d="M88.6262 28.9132C88.2675 29.5056 87.3707 29.4552 87.842 30.5139L86.403 29.6568C86.2696 29.6568 86.1361 30.8038 85.4687 30.5097C85.3394 30.3794 85.7232 29.0308 85.8191 28.7619C85.8942 28.5519 86.3613 28.7367 85.9734 28.1191C86.6783 28.2872 89.4604 27.5226 88.622 28.909L88.6262 28.9132Z" fill="#E30613"/>
<path d="M7.30769 22.3174L7.28683 24.1744C5.93959 24.4054 4.98025 25.0692 4.08765 26.0775C4.3963 24.4264 5.58922 22.6745 7.30769 22.3216V22.3174Z" fill="black"/>
<path d="M70.2068 27.9554C69.748 28.9385 69.9816 30.7492 68.5134 30.514L68.6844 29.493L67.5999 29.4804L67.308 30.493L66.6489 30.514L67.1578 28.1234H68.0045L67.8377 28.9763L68.9138 28.9847C69.1641 28.9217 69.089 28.3377 69.2308 28.157C69.3726 27.9764 69.9691 28.1318 70.2068 27.9512V27.9554Z" fill="#E30613"/>
<path d="M85.2976 28.1279L84.4259 30.4933L83.6042 30.5143L83.9421 29.8337C83.7961 29.8295 83.6668 29.7538 83.5208 29.7496C83.3498 29.7496 82.6115 29.7958 82.5156 29.8253C82.4321 29.8505 82.4113 30.5647 81.7397 30.5185L82.2611 28.1447L85.2976 28.1279ZM84.2799 28.4682C83.6459 28.4262 82.649 28.4304 82.7575 29.3211L84.088 29.2959L84.2841 28.4682H84.2799Z" fill="#E30613"/>
<path d="M66.4821 28.1235C66.5029 29.1823 64.2047 28.3756 64.1087 28.468L63.9377 30.0015L65.2182 29.8419L65.2474 29.3545C64.9263 29.3335 64.9096 29.3125 64.9555 28.9806L66.3069 29.0646L65.8022 30.2662C65.3142 30.4006 63.2662 30.8292 63.0994 30.241C62.9575 29.7452 63.8501 28.6781 63.5957 28.1277H66.4779L66.4821 28.1235Z" fill="#E30613"/>
<path d="M81.5687 28.1235C81.8356 28.3294 81.5687 28.4344 81.3184 28.468C80.7553 28.5353 79.7084 28.174 79.7042 28.9806L80.7178 29.2369L79.3664 29.7536C79.7042 30.3628 80.9889 29.594 80.8888 30.3502C79.9795 30.2914 79.2413 30.6695 78.3445 30.3502C78.6156 29.8041 78.5363 28.5521 79.1912 28.4722L78.8533 28.1319H81.5645L81.5687 28.1235Z" fill="#E30613"/>
<path d="M61.7313 28.1235C61.5477 28.6949 60.1087 28.405 59.8668 28.6361C59.6791 29.3881 60.9054 28.5899 60.8845 29.2285C59.896 29.7746 59.4414 29.1024 59.0868 30.5183C58.7907 30.4805 58.4653 30.6821 58.5154 30.262C58.5988 29.5982 59.1077 28.821 59.1911 28.1235H61.7354H61.7313Z" fill="#E30613"/>
<path d="M73.26 27.9554L73.089 28.6402L71.9086 28.4721L72.2423 28.72C71.7709 29.3838 72.0462 30.5182 71.0619 30.5182L71.3955 28.4679L70.5488 28.636V28.1234L73.26 27.9512V27.9554Z" fill="#E30613"/>
<path d="M62.92 28.1235L62.4028 30.3376L61.5645 30.3418L62.2652 28.1487L62.92 28.1235Z" fill="#E30613"/>
</g>
<defs>
<clipPath id="clip0_342_871">
<rect width="89.8774" height="36.6605" fill="white"/>
</clipPath>
</defs>
</svg>
