<svg width="38" height="62" viewBox="0 0 38 62" fill="none" xmlns="http://www.w3.org/2000/svg">
<g opacity="0.74" clip-path="url(#clip0_342_895)">
<path d="M18.9249 54.1935L19.4482 52.2384C20.7534 41.5266 19.2544 30.3019 19.9651 19.6606C20.0233 18.776 20.1073 17.0452 20.8374 16.6157C21.309 16.34 24.4362 15.1092 24.7012 15.3721C24.3329 24.9492 25.1987 34.8982 24.7141 44.4369C24.5138 48.3665 23.8806 51.9884 22.4591 55.4884C22.0262 56.5654 19.9393 61.495 18.7956 61.495L16.1078 56.6103C14.0854 53.591 13.5815 48.9049 13.4005 45.219C12.916 35.411 13.827 25.3146 13.5169 15.6541C13.5039 15.3336 13.5492 15.3208 13.8076 15.1221C14.7832 15.9811 17.8652 16.167 18.1366 17.5965C18.4661 29.7891 17.3806 42.0971 18.9313 54.2L18.9249 54.1935Z" fill="white"/>
<path d="M37.7785 11.7633C38.3406 12.7185 35.0261 15.2634 34.2636 15.3724C33.1265 15.5263 32.3705 14.0262 31.1235 13.8211C30.0122 13.6352 26.2582 13.6608 25.0888 13.8019C23.4282 14.0006 19.8294 16.1353 19.054 16.1353C17.8393 16.1353 14.7896 14.0006 13.0128 13.8083C11.8304 13.6801 7.76634 13.616 6.71317 13.8083C5.73753 13.9942 5.03326 15.5519 3.83148 15.3788C3.4115 15.3147 0 12.7185 0 12.3723C0 11.7313 3.3792 9.60304 4.09639 9.10303C5.58892 9.58381 5.93136 10.789 7.74696 10.9556C14.9899 11.6223 23.2603 10.4236 30.6131 10.9492C32.4157 10.9685 33.0425 8.51327 34.7741 9.41073C34.9938 9.52611 37.6816 11.6031 37.7785 11.7698V11.7633Z" fill="white"/>
<path d="M22.3686 6.2181C22.8726 6.37836 23.312 6.154 23.7578 5.96168C26.3358 4.85909 28.8363 2.58981 31.5306 1.55773C31.8149 1.89748 27.5764 8.23738 27.1628 9.13484C21.7548 7.67968 16.1207 7.89763 10.7062 9.13484L6.57751 1.82056C7.23656 1.28849 13.6913 6.26938 14.8543 6.23092C15.1644 6.22451 15.8364 5.7886 16.0431 5.53219C16.5213 4.91679 18.6858 0 19.0541 0L22.3686 6.2181Z" fill="white"/>
<path d="M33.1006 35.6931L33.0812 31.9366C32.5256 27.9686 26.3552 27.1416 25.625 25.5262C25.3278 24.866 25.2761 21.8082 26.0127 21.4748C26.4908 21.2569 30.8715 23.8595 31.5112 24.3788C35.0261 27.2378 34.5867 31.8789 33.1071 35.6867L33.1006 35.6931Z" fill="white"/>
<path d="M12.3538 31.7827V35.6931C8.91642 35.2379 5.44676 35.8726 2.11279 36.7316C5.13663 34.7059 8.61274 31.9045 12.3538 31.7827Z" fill="white"/>
<path d="M12.3538 26.834V29.9623C9.19431 30.0264 6.02833 29.8597 2.90112 29.4366L12.3538 26.834Z" fill="white"/>
<path d="M12.3537 21.3657V24.7504C11.7981 25.2953 4.83938 22.5452 4.21265 21.3657C6.97157 21.6734 9.65296 22.3593 12.3537 21.3657Z" fill="white"/>
<path d="M12.3538 37.52L12.3215 40.6098C10.1893 41.2444 8.2639 42.3021 6.84244 44.033C6.27386 42.4175 11.4363 36.584 12.3538 37.52Z" fill="white"/>
</g>
<defs>
<clipPath id="clip0_342_895">
<rect width="37.8431" height="61.4951" fill="white"/>
</clipPath>
</defs>
</svg>
