<svg width="41" height="40" viewBox="0 0 41 40" fill="none" xmlns="http://www.w3.org/2000/svg">
<path d="M6.45464 0.0287385L33.5147 0C36.6817 0.258645 39.2968 2.52898 39.9866 5.61548C40.2107 14.898 40.2107 24.2724 39.9866 33.5549C39.2509 36.7506 36.5839 38.9462 33.325 39.1704H6.89146C3.31066 39.0152 0.390842 36.3138 0 32.756L0.017243 6.24197C0.454066 2.94856 3.12673 0.333365 6.45464 0.0287385ZM12.6564 22.1228C16.6912 22.4217 21.3526 21.3641 21.6572 16.5476C22.1171 9.271 14.3864 9.7653 9.32273 10.0239L9.00086 10.1676V27.5084L9.1388 27.6463H12.5127L12.6506 27.5084V22.1171L12.6564 22.1228ZM23.439 23.8988V27.0371C23.439 27.2785 24.169 27.5084 24.3989 27.5773C27.5026 28.5774 33.0146 28.2153 33.1928 23.9448C33.2848 21.7377 31.8306 20.7089 30.0373 19.8755C29.3361 19.5536 26.0887 18.7029 27.1865 17.4672C27.767 16.8177 30.2385 17.2143 31.0547 17.4499C31.5317 17.5879 31.9341 17.9098 32.4284 17.881C32.6353 17.5706 32.4341 17.2833 32.4456 17.0074C32.4686 16.4671 32.6985 15.1566 32.3881 14.7025C31.9916 14.122 28.3705 14.0703 27.6233 14.1508C25.9737 14.3175 24.1517 15.3808 23.6747 17.0476C22.9907 19.4386 24.192 21.025 26.2496 22.0653C27.06 22.4792 30.1695 23.1804 29.4281 24.4851C29.112 25.0426 27.2785 24.9736 26.675 24.9162C25.5312 24.807 24.4908 24.2437 23.439 23.8873V23.8988Z" fill="#141C32"/>
<path d="M12.6563 22.1228V27.5141L12.5184 27.652H9.14447L9.00653 27.5141V10.1733L9.3284 10.0297C14.3921 9.77101 22.1227 9.27671 21.6629 16.5533C21.3583 21.3698 16.6969 22.4274 12.6621 22.1285L12.6563 22.1228ZM12.6563 18.9328H14.9554C15.2428 18.9328 16.3348 18.5994 16.6337 18.4557C17.9787 17.789 18.3695 16.1222 17.7717 14.8117C16.9211 12.9552 14.3404 13.2369 12.6621 13.3116V18.9328H12.6563Z" fill="#51A1D9"/>
<path d="M23.4389 23.8987C24.485 24.2551 25.5311 24.8241 26.6748 24.9276C27.2784 24.985 29.1119 25.054 29.428 24.4965C30.1694 23.186 27.0599 22.4848 26.2495 22.0767C24.1918 21.0306 22.9906 19.4443 23.6746 17.059C24.1516 15.3979 25.9736 14.3288 27.6232 14.1622C28.3762 14.0874 31.9914 14.1334 32.388 14.7139C32.6984 15.168 32.4685 16.4785 32.4455 17.0188C32.434 17.2946 32.6352 17.582 32.4283 17.8924C31.9282 17.9211 31.5259 17.5935 31.0546 17.4613C30.2442 17.2257 27.7727 16.8291 27.1864 17.4786C26.0886 18.7086 29.336 19.5592 30.0372 19.8868C31.8363 20.7203 33.2847 21.7491 33.1927 23.9562C33.0145 28.2267 27.5025 28.5888 24.3988 27.5887C24.1746 27.514 23.4389 27.2898 23.4389 27.0484V23.9102V23.8987Z" fill="#51A1D9"/>
<path d="M12.6563 18.9327V13.3115C14.3288 13.2368 16.9153 12.9551 17.7659 14.8116C18.3637 16.1221 17.9786 17.7889 16.6279 18.4557C16.3348 18.5994 15.2427 18.9327 14.9496 18.9327H12.6505H12.6563Z" fill="#141C32"/>
</svg>
