<svg width="28" height="142" viewBox="0 0 28 142" fill="none" xmlns="http://www.w3.org/2000/svg">
<path d="M14.049 142C11.5148 138.705 8.67438 135.642 6.28567 132.232C3.32275 128.009 1.21732 124.111 3.5065 118.905C7.34221 110.189 19.6686 109.732 24.1397 118.116C27.4778 124.373 23.9177 129.447 20.1815 134.32C18.1909 136.919 15.9477 139.339 14.049 141.992V142ZM17.4177 120.197C14.8529 117.583 10.2898 118.782 9.38639 122.355C8.40641 126.199 12.1962 129.385 15.8099 127.97C18.9183 126.748 19.7834 122.602 17.4253 120.197H17.4177Z" fill="#74030F"/>
<path d="M1.92934 57.7577L25.8547 57.7422C26.1533 57.8041 26.4978 57.7809 26.7351 58.0052L15.1668 68.3073C14.5466 68.8874 13.9265 69.1272 13.1685 68.6012C9.37874 65.0434 5.26741 61.8105 1.48529 58.245C1.43935 58.1986 1.24795 58.0439 1.28623 57.982L1.92934 57.7654V57.7577Z" fill="#74030F"/>
<path d="M10.9559 68.2532L11.0861 68.2764C11.8134 68.8797 12.6326 69.947 13.6279 70.0398C15.1974 70.1868 15.8558 69.22 16.92 68.2764H17.0884L26.7428 76.877L26.4059 77.0548C18.3134 77.2482 10.1903 77.078 2.09012 77.1399C1.95996 77.1322 1.26326 76.993 1.26326 76.877L10.9559 68.2532Z" fill="#74030F"/>
<path d="M10.1137 67.4952L0.37515 76.0958C0.130154 75.8174 0.0306244 75.3997 0 75.0285V59.846C0 59.6758 0.206715 58.7786 0.37515 58.7786C0.489991 58.9333 0.658426 59.0261 0.803892 59.1499C3.62134 61.6017 6.43113 64.0921 9.20265 66.598C9.29452 66.6831 10.152 67.4411 10.1137 67.4952Z" fill="#74030F"/>
<path d="M20.7634 70.0089C19.9365 69.2664 19.0254 68.5162 18.2215 67.7505C18.1373 67.6654 17.9 67.4875 17.9612 67.3715L27.6233 58.7709C27.7917 58.7709 28.0214 59.7145 27.9984 59.8924V75.0749C28.0137 75.2373 27.7534 76.0803 27.6233 76.0803C25.357 74.0307 23.0449 72.0275 20.7634 69.9934V70.0089Z" fill="#74030F"/>
<path d="M10.1673 18.4441C8.09251 16.4641 6.07895 14.3527 4.42523 11.9937C2.57245 9.34082 0.658426 5.74435 2.51886 2.58875C3.2615 1.32805 5.81099 -1.1392 7.14315 0.601026L10.5042 6.45591C10.9406 7.93317 8.61313 9.36402 8.94234 10.9109C9.03421 11.3285 10.4506 12.9992 10.8257 13.4091C11.7445 14.43 13.9494 16.673 15.0749 17.3072C16.6903 18.2198 18.2522 15.4664 19.7987 15.8686L25.648 19.2872C27.3629 20.6252 24.936 23.2085 23.6804 23.9587C19.1479 26.6889 13.2757 21.4141 10.1597 18.4364L10.1673 18.4441Z" fill="#74030F"/>
</svg>
